<?xml version="1.0" encoding="utf-8"?>
<!-- Generator: Adobe Illustrator 18.1.1, SVG Export Plug-In . SVG Version: 6.00 Build 0)  -->
<svg version="1.1" id="Layer_1" xmlns="http://www.w3.org/2000/svg" xmlns:xlink="http://www.w3.org/1999/xlink" x="0px" y="0px"
	 viewBox="0 0 512 512" enable-background="new 0 0 512 512" xml:space="preserve">
<g>
	<path fill="#2F78BD" d="M260.1,506.8c-8.6-0.6-15.8-2.1-22.8-7.3c-3.9-2.9-10-3.3-15.2-4.2c-35.1-6.3-70.2-12.5-105.4-18.7
		c-4.3-0.8-8.6-1.2-12.7-2.5c-2-0.6-4.1-2.7-5.1-4.6c-2.9-6-1.8-7.7,4.9-9.1c18-3.7,32.5-20.3,34.5-38.5
		c2.5-22.4-8.8-37.4-25.8-49.1c-8.2-5.7-17.3-10.1-25.9-15.3c-1.3-0.8-2.6-2.4-2.8-3.8c-1.8-12.9-3.4-25.7-5-38.6
		c-0.6-4.6-1-9.3-1.9-13.9c-1.3-7.2,1.7-14.4,12.3-11.8c32.1,7.9,64.5,14.9,96.7,22.3c17.7,4.1,35.5,8,53.1,12.4
		c2.6,0.7,5.5,3.2,6.8,5.6c1.7,3.3,3.8,4.7,7.2,4.7c2.8,0,5.7,0.5,8.3-0.2c1.9-0.4,4.4-1.9,5-3.6c1.7-4.3,4.7-6,8.9-7
		c36-8.2,71.9-16.5,107.9-24.7c14.3-3.3,28.7-6.6,43.1-9.8c6.3-1.4,10.9,2.4,10.2,8.6c-2.2,18.2-4.8,36.4-6.9,54.6
		c-0.4,3.6-2.1,4.8-5.1,6.2c-17.8,8.4-34.5,18.8-44.4,36.3c-14,24.9-0.8,58,29.5,65.7c2.4,0.6,6.1-0.4,6.1,3.9c-0.1,4.4-1,8.6-6,9.8
		c-7.1,1.6-14.3,2.8-21.4,4.1c-30.5,5.4-61,10.8-91.5,16.2c-3.4,0.6-6.8,1-10.3,1.6c-4.7,0.8-9.1,1.8-13.2,5.2
		C269.7,504.3,264.6,505.1,260.1,506.8z"/>
	<path fill="#434343" d="M182.7,107.6c-1.2-11-2.6-21.1-3.3-31.3c-1-16.3,3.5-30.5,16.7-41.2c11.2-9.1,21.8-18.9,35.7-23.8
		c24.3-8.6,46.8-5,67.7,9.6c6.2,4.4,11.9,9.6,17.8,14.4C329.9,45.4,334.7,59,334,74.5c-0.4,9.3-2.1,18.6-3.2,27.9
		c-0.2,1.5-0.3,3.1-0.4,4.6c9.6,1.6,13.6,12.7,7.3,22c-3.9,5.8-8.5,11.3-16,13.4c-1.5,0.4-2.8,2.8-3.6,4.5
		c-7.3,16.5-16.1,31.9-29.8,44.1c-19.6,17.5-44.5,17.2-63.8-0.6c-13-12-21.9-26.8-28.8-42.9c-1.3-3-2.7-4.8-6.3-5.8
		c-10.6-3.1-18.1-17.7-15.7-28.7C174.8,107.8,178.3,107.1,182.7,107.6z"/>
	<path fill="#434343" d="M405.1,276.4c-13.9,2.2-27.2,4.3-40.6,6.3c-30.2,4.6-60.4,8.7-90.5,13.8c-6.3,1.1-12,5.4-18.6,8.6
		c-4.6-5.9-12.4-8.4-20.8-9.6c-32.9-4.9-65.9-9.8-98.8-14.8c-9-1.4-18.1-2.8-28.5-4.4c2.7-10.6,4.5-20.7,8.1-30.1
		c1.7-4.4,6.3-8.3,10.5-11c13.8-8.9,29.4-13.9,45.1-18.5c10.5-3.1,21.1-5.7,31.7-8.2c1.6-0.4,4.3,0.5,5.4,1.8
		c5.9,7.2,10.8,15.4,17.3,21.9c7.8,7.9,16.8,14.5,25.3,21.6c3.8,3.2,7.7,3.1,11.8,0.1c17-12.3,32.9-25.5,43.5-44.1
		c0.6-1,2.9-1.8,4.1-1.5c24.9,6.1,49.7,12.6,73,23.9c14,6.7,18,18.7,20.4,32.2C404.1,268.1,404.5,271.9,405.1,276.4z"/>
	<path fill="#434343" d="M456.9,398.1c-1.2,17.7-6.1,30.5-18.2,39.7c-12.6,9.6-30.3,7.9-39.9-3.8c-10-12.1-8.8-29.1,3.6-39.6
		c8.2-6.9,17.1-13.1,26.4-18.4c10-5.6,16.4-3.7,22.2,6.4C454.3,388,455.6,394.6,456.9,398.1z"/>
	<path fill="#434343" d="M121.1,416.6c-0.1,20.6-22.6,33.9-41.3,24.4c-17.4-8.8-27.4-33.4-20.9-51.7c0.7-2.1,1.7-4.2,2.9-6.1
		c6.6-10.6,13.2-12.8,23.9-6.5c9.2,5.4,17.8,12,26.2,18.7C118.4,400.6,121.1,408.1,121.1,416.6z"/>
</g>
</svg>
