<?xml version="1.0" encoding="utf-8"?>
<!-- Generator: Adobe Illustrator 18.1.1, SVG Export Plug-In . SVG Version: 6.00 Build 0)  -->
<svg version="1.1" id="Layer_1" xmlns="http://www.w3.org/2000/svg" xmlns:xlink="http://www.w3.org/1999/xlink" x="0px" y="0px"
	 viewBox="0 0 595.3 841.9" enable-background="new 0 0 595.3 841.9" xml:space="preserve">
<rect id="background" fill="#FFFFFF" width="595.3" height="841.9"/>
<g id="book">
	<path fill="#1F3241" d="M52.8,702.4l0-321.3c0-7.4,2-11,9.1-13.5c43.4-15.2,87.8-23.4,133.9-18.9c32.2,3.1,62.1,13.3,88.6,32.4
		c2.5,1.8,4.6,5.9,4.6,9l0,325.3C224.3,673.3,164.3,668.3,52.8,702.4z"/>
	<path fill="#1F3241" d="M307.4,715.4l0-321.8c0-7.6,2.5-11.9,8.6-15.8c34.6-22.3,72.8-30.8,113.6-30.2c36.8,0.5,72,9,106.5,21.2
		c5,1.8,6.5,4.4,6.5,9.3l0,326C463.3,675.3,384,665.1,307.4,715.4z"/>
	<path fill="#1F3241" d="M59.3,746.3c17.4-5.9,34.7-12.1,52.2-17.5c29.3-8.9,59.2-13.2,90-10.2c26.7,2.7,49.7,13.3,70.1,30.1
		c18,14.8,32.1,16.1,49.6,1.3c39.9-33.5,85.7-37.6,134.3-28.7c28.6,5.2,55.9,14.5,82.6,25.8l-0.9,2.3H342.8
		c-5.1,0-11.2,2.4-15.3,5.6c-22.9,17.6-38.3,17.6-61.2-0.2c-3.9-3-9.5-5.4-14.3-5.4l-191.8,0L59.3,746.3z"/>
</g>
<g id="text">
	<path fill="#BE1E2D" d="M134.9,97.7v72h-16l-30.1-45.6v45.6h-7v-72H95l32.8,49.2V97.7H134.9z"/>
	<path fill="#BE1E2D" d="M169.9,115.1c17.6,0,26.4,9.3,26.4,27.8s-8.8,27.8-26.4,27.8c-17.6,0-26.4-9.3-26.4-27.8
		S152.3,115.1,169.9,115.1z M169.9,119.8c-4.3,0-6.4,7.7-6.4,23.2c0,15.4,2.1,23.2,6.4,23.2c4.3,0,6.4-7.7,6.4-23.2
		C176.3,127.5,174.2,119.8,169.9,119.8z"/>
	<path fill="#BE1E2D" d="M237,169.6v-53.1c6,0,12.4-0.5,19.2-1.4v54.5H237z M246.8,95.9c6,0,9,2.3,9,7s-3,7-9,7c-6,0-9-2.3-9-7
		S240.8,95.9,246.8,95.9z"/>
	<path fill="#BE1E2D" d="M345,169.6h-19.2v-39.9c0-3.5-1-5.2-3.1-5.2c-4.7,0-7.1,5-7.1,15v30.1h-19.2v-39.1c0-4-0.9-6-2.7-6
		c-4.8,0-7.2,5-7.2,15v30.1h-19.2v-53.3c6.5,0,12.9-0.4,19.2-1.3v9.2c4.5-6.1,10.1-9.1,16.8-9.1c5.6,0,9.7,2.9,12.4,8.6
		c4.3-5.8,9.7-8.7,16.1-8.7c8.9,0,13.3,4.5,13.3,13.4V169.6z"/>
	<path fill="#BE1E2D" d="M409.4,167.7c-4.7,1.8-9.3,2.7-13.8,2.7c-6.6,0-10.7-2.1-12.2-6.2c-3.2,4.3-7.8,6.4-13.8,6.4
		c-11.2,0-16.8-5.2-16.8-15.6c0-7.9,5.1-13.5,15.4-16.7c9.4-3,14.1-6.5,14.1-10.7c0-5.4-2.7-8.2-8.1-8.2c-6.3,0-9.4,2.6-9.4,7.9
		c0,1.7,0.5,3.8,1.5,6.5l-9.5-1.8c-0.2-1.7-0.4-3.2-0.4-4.6c0-8.4,7.7-12.7,23.1-12.7c14.6,0,21.9,3.9,21.9,11.8V159
		c0,3.3,1.1,5,3.2,5c0.7,0,1.7-0.4,3-1.1L409.4,167.7z M382.2,137.7c-1.2,1.4-2.6,2.5-4.2,3.4c-4,2.3-6,6.2-6,11.7
		c0,7,1.4,10.5,4.1,10.5c4,0,6-3.5,6-10.4V137.7z"/>
	<path fill="#BE1E2D" d="M447.6,117c9,3.8,13.4,9.4,13.4,16.7c0,4.8-2.3,8.9-6.8,12.3c-4.5,3.4-9.9,5.1-16.3,5.1
		c-2.5,0-5.8-0.3-10-0.9c-2.4,1.4-3.6,2.8-3.6,4.2c0,1.9,1.5,2.9,4.5,2.9c0.8,0,2.3-0.1,4.7-0.2c5.9-0.4,10.3-0.6,13-0.6
		c12.8,0,19.2,4.9,19.2,14.6c0,11.7-10.6,17.6-31.8,17.6c-15.8,0-23.7-3.3-23.7-10c0-3.8,3.2-6.4,9.6-7.8
		c-6.8-1.8-10.2-4.8-10.2-8.9c0-5.2,4.1-9.7,12.2-13.7c-7.1-2.9-10.7-7.8-10.7-14.7c0-5.3,2.2-9.7,6.5-13.3
		c4.3-3.6,9.7-5.4,16.1-5.4c2.2,0,5,0.2,8.6,0.7c-0.2-1.2-0.3-2.2-0.3-2.9c0-7,3.6-10.4,10.9-10.4c5.8,0,8.7,2.4,8.7,7.3
		c0,3.7-1.7,5.6-5.2,5.6c-1.2,0-2.5-0.4-4.1-1.2c-1-0.5-1.7-0.8-2.2-0.8C448.4,113.3,447.6,114.5,447.6,117z M435.2,173.1
		c-9,0-13.4,1.7-13.4,5.2c0,3.4,4.3,5.2,13,5.2c10.1,0,15.1-1.9,15.1-5.8C449.9,174.7,445,173.1,435.2,173.1z M435.8,120.3
		c-3.6,0-5.4,4.5-5.4,13.4c0,8.2,1.9,12.3,5.6,12.3c3.4,0,5.1-3.6,5.1-10.9C441.1,125.2,439.3,120.3,435.8,120.3z"/>
	<path fill="#BE1E2D" d="M508.9,150.2l7.8,2.3c-0.8,12.3-8.1,18.4-21.7,18.4c-17.7,0-26.6-8.8-26.6-26.5c0-8.6,2.4-15.6,7.1-21.1
		s10.7-8.2,18.1-8.2c15.4,0,23,9.9,23,29.7h-28.1c0,13.9,3.5,20.9,10.6,20.9c6.6,0,9.9-3.9,9.9-11.8
		C509,152.8,509,151.6,508.9,150.2z M488.4,138.8h11.5c0-12.4-1.9-18.6-5.6-18.6c-3.4,0-5.3,4.6-5.7,13.8L488.4,138.8z"/>
	<path fill="#BE1E2D" d="M125.8,227.3l20,72h-21l-4.3-15.6H98.9l-4.6,15.6h-8.2l21.3-72H125.8z M101,276.4h17.7l-8.5-31.9L101,276.4
		z"/>
	<path fill="#BE1E2D" d="M193.8,246.1l-17.9,53.2h-13.4l-18.5-53.2h20.5l11.3,35.6l11.6-35.6H193.8z"/>
	<path fill="#BE1E2D" d="M251.5,297.3c-4.7,1.8-9.3,2.7-13.8,2.7c-6.6,0-10.7-2.1-12.2-6.2c-3.2,4.3-7.8,6.4-13.8,6.4
		c-11.2,0-16.8-5.2-16.8-15.6c0-7.9,5.1-13.5,15.4-16.7c9.4-3,14.1-6.5,14.1-10.7c0-5.4-2.7-8.2-8.1-8.2c-6.3,0-9.4,2.6-9.4,7.9
		c0,1.7,0.5,3.8,1.5,6.5l-9.5-1.8c-0.2-1.7-0.4-3.2-0.4-4.6c0-8.4,7.7-12.7,23.1-12.7c14.6,0,21.9,3.9,21.9,11.8v32.3
		c0,3.3,1.1,5,3.2,5c0.7,0,1.7-0.4,3-1.1L251.5,297.3z M224.3,267.3c-1.2,1.4-2.6,2.5-4.2,3.4c-4,2.3-6,6.2-6,11.7
		c0,7,1.4,10.5,4.1,10.5c4,0,6-3.5,6-10.4V267.3z"/>
	<path fill="#BE1E2D" d="M255.3,299.2v-53.1c6,0,12.4-0.5,19.2-1.4v54.5H255.3z M265,225.5c6,0,9,2.3,9,7s-3,7-9,7c-6,0-9-2.3-9-7
		S259,225.5,265,225.5z"/>
	<path fill="#BE1E2D" d="M304.5,226.2v73h-19.2v-72C290.5,227.3,296.9,226.9,304.5,226.2z"/>
	<path fill="#BE1E2D" d="M368.6,297.3c-4.7,1.8-9.3,2.7-13.8,2.7c-6.6,0-10.7-2.1-12.2-6.2c-3.2,4.3-7.8,6.4-13.8,6.4
		c-11.2,0-16.8-5.2-16.8-15.6c0-7.9,5.1-13.5,15.4-16.7c9.4-3,14.1-6.5,14.1-10.7c0-5.4-2.7-8.2-8.1-8.2c-6.3,0-9.4,2.6-9.4,7.9
		c0,1.7,0.5,3.8,1.5,6.5l-9.5-1.8c-0.2-1.7-0.4-3.2-0.4-4.6c0-8.4,7.7-12.7,23.1-12.7c14.6,0,21.9,3.9,21.9,11.8v32.3
		c0,3.3,1.1,5,3.2,5c0.7,0,1.7-0.4,3-1.1L368.6,297.3z M341.4,267.3c-1.2,1.4-2.6,2.5-4.2,3.4c-4,2.3-6,6.2-6,11.7
		c0,7,1.4,10.5,4.1,10.5c4,0,6-3.5,6-10.4V267.3z"/>
	<path fill="#BE1E2D" d="M372,299.2v-72c3.1,0,9.5-0.4,19.2-1.1v25.6c3.6-4.7,7.6-7,12-7c12.6,0,18.9,8.7,18.9,26.2
		c0,19.7-7.5,29.5-22.5,29.5c-7.1,0-13.1-3.3-18.1-10l-4.7,8.8H372z M397.3,252.5c-4.3,0-6.4,6.2-6.4,18.5c0,14.5,2.1,21.7,6.2,21.7
		c3.6,0,5.4-3.8,5.4-11.3l0.3-13l-0.4-7.3C401.9,255.3,400.2,252.5,397.3,252.5z"/>
	<path fill="#BE1E2D" d="M449.4,226.2v73h-19.2v-72C435.4,227.3,441.9,226.9,449.4,226.2z"/>
	<path fill="#BE1E2D" d="M498,279.8l7.8,2.3c-0.8,12.3-8.1,18.4-21.7,18.4c-17.7,0-26.6-8.8-26.6-26.5c0-8.6,2.4-15.6,7.1-21.1
		c4.7-5.5,10.7-8.2,18.1-8.2c15.4,0,23,9.9,23,29.7h-28.1c0,13.9,3.5,20.9,10.6,20.9c6.6,0,9.9-3.9,9.9-11.8
		C498.1,282.4,498.1,281.2,498,279.8z M477.5,268.4H489c0-12.4-1.9-18.6-5.6-18.6c-3.4,0-5.3,4.6-5.7,13.8L477.5,268.4z"/>
</g>
</svg>
