<?xml version="1.0" encoding="utf-8"?>
<!-- Generator: Adobe Illustrator 18.1.1, SVG Export Plug-In . SVG Version: 6.00 Build 0)  -->
<svg version="1.1" id="Layer_1" xmlns="http://www.w3.org/2000/svg" xmlns:xlink="http://www.w3.org/1999/xlink" x="0px" y="0px"
	 viewBox="0 0 512 512" enable-background="new 0 0 512 512" xml:space="preserve">
<g>
	<path fill="#414254" d="M363.8,4.8c0,80.7,0,161.2,0,242.3c-3.3,0-6.4-0.1-9.6,0c-12.3,0.4-24.3,2-36,5.9
		c-19.4,6.6-33.5,19.4-43.6,36.9c-7.9,13.8-14.5,37.7-17.3,46.8l0-230c0-17.8,11.7-49.9,19.6-62.5c13.1-20.9,31.9-33.2,56.1-37
		c9.3-1.5,18.9-1.7,28.3-2.5C362.1,4.7,362.9,4.8,363.8,4.8z"/>
	<path fill="#414254" d="M148.2,5.2c4.8,0,9.5-0.2,14.1,0c11.4,0.6,22.5,2.4,33.2,6.4c19.5,7.2,33.3,20.8,43.1,38.9
		c7.8,14.5,16.1,41.2,16.1,56.3c0,79.2,0,150.8,0,230c-1-3.2-9.4-33.1-19.2-49.7c-12.8-20.8-31.3-33.3-55.2-37.5
		c-8.6-1.5-17.4-1.8-26.2-2.6c-1.9-0.2-3.8-0.2-5.9-0.3C148.2,166.1,148.2,85.6,148.2,5.2z"/>
	<path fill="#414254" d="M260.4,337.4c27.9-43.6,66.5-67.4,119.6-65.1c0,0,0.1-154,0-229.7c0-1.8,0.6-2.9,2-4
		c8.4-6.4,17.1-12.3,27.4-15.5c8.4-2.6,16.8-2.9,25.2-0.6c1.6,0.4,2.2,1.1,2.2,3l0,276.9C371.5,282.5,313.4,297,260.4,337.4z"/>
	<path fill="#414254" d="M131.8,272.3c53.2-2.3,91.9,21.5,119.7,65.3c-14.7-12.3-42.9-28.2-65.7-35.6c-19.9-6.5-40.4-9.3-61.3-8.4
		c-15.8,0.7-38.5,4.8-49.3,8.7l0-276.3c0-2.2,0.7-3,2.7-3.6c9.9-2.6,19.5-1.5,28.8,2.2c8.8,3.5,16.5,8.7,23.8,14.6
		c0.6,0.5,1.1,1.5,1.3,2.4C132,42.7,131.8,272.3,131.8,272.3z"/>
	<path fill="#34152F" d="M494.3,359.9c-8-4.3-15.8-8.9-23.9-12.9c-18.8-9.4-38.7-15.6-59.5-18.8c-33.8-5.3-67.1-2.5-100.2,5.5
		c-15.3,3.7-31.2,9.2-47,14.4c59.4-36.2,122.1-44.6,188.8-22.3l0-258.6c0-2.6,0.8-4.3,2.7-5.9c11.4-9.6,24.4-12.2,39-9.6V359.9z"/>
	<path fill="#34152F" d="M59.3,325.8c66.6-22.3,129.4-13.9,189.5,22.4c-27.1-9.4-51.9-16.7-77.7-20.3c-44.2-6.1-86.9-1.3-127.5,18.1
		c-8,3.8-19.7,10.7-25.8,14.2c0-102.9,0-205.6,0-308.4c11.9-2.2,23.3-0.9,33.7,5.7c7.9,5.1,7.9,5.1,7.9,14.5L59.3,325.8z"/>
	<path fill="#414254" d="M232.1,409.6c15.9-6.3,31.7-6.3,47.7,0c0.8-2.6,1.4-5.1,2.3-7.6c5.8-17,16.7-30,31.2-40.1
		c15.5-10.8,32.8-16.5,51.6-17.9c22.5-1.7,43.7,2.4,63.3,13.9c18.6,10.9,32.5,26.1,38.5,47.3c6.3,22.5,2,43.2-11.9,61.8
		c-14.6,19.4-34.5,30.6-58,35.3c-28.7,5.7-56,1.7-80.9-14.2c-17.3-11.1-29.9-26.1-35.1-46.4c-1.4-5.6-1.7-11.5-2.3-17.2
		c-0.2-1.6-0.5-2.6-2-3.3c-13.8-6.2-27.5-6.2-41.2,0.1c-0.8,0.3-1.6,1.4-1.7,2.2c-0.4,27.3-13.4,47.7-35.1,63.1
		c-14.9,10.5-31.8,16.1-49.9,17.7c-22.4,2-43.6-1.8-63.3-12.8c-16.5-9.2-29.6-21.9-36.9-39.5c-11-26.7-6.7-51.5,11.4-73.7
		c14-17.2,32.6-27.2,54.1-31.8c23.8-5.1,47-3.1,69.3,6.9c19.9,9,35.4,22.9,44.5,43.2c0.9,2.1,1.7,4.3,2.5,6.5
		C230.8,405,231.4,407.1,232.1,409.6z M371.7,355.2c-2.6,0.2-7.4,0.4-12.2,1.1c-20.4,3-38.4,11-52.4,26.4
		c-15.7,17.1-21.2,37.1-13.9,59.6c6.1,18.6,19.3,31.3,36.4,40.1c17.7,9.1,36.5,12.1,56.2,9.8c20.8-2.5,39.2-10.3,53.8-25.5
		c14.2-14.7,20.7-32.2,17.2-52.7c-2.9-16.4-11.9-29.3-24.8-39.4C415,361.3,395.4,355.5,371.7,355.2z M135.5,355.2
		c-3.4,0.4-9.4,0.7-15.4,1.7c-19.9,3.6-37.2,12.2-50.6,27.7c-16.6,19.1-19.9,44.3-8.3,66.7c7.7,14.8,19.8,25.1,34.7,32.2
		c19.7,9.5,40.5,11.8,61.9,7.5c20.6-4.1,38.3-13.5,51.4-30.4c10.5-13.6,14.9-29,12-46.1c-2.6-15.1-10.3-27.4-21.7-37.3
		C181.8,362,161,355.6,135.5,355.2z"/>
</g>
</svg>
